<?xml version="1.0" encoding="UTF-8"?><svg enable-background="new 0 0 512 512" version="1.1" viewBox="0 0 512 512" xml:space="preserve" xmlns="http://www.w3.org/2000/svg"><path d="m169.07 16.168v159.23l-88.925 237.83c-8.396 22.452-5.25 47.616 8.412 67.311 13.664 19.696 36.132 31.454 60.103 31.454h214.69c23.984 0 46.458-11.768 60.12-31.48 13.661-19.713 16.791-44.888 8.372-67.345l-89.147-237.78v-159.23h-173.62z" fill="#EDEEF0"/><path d="m431.84 413.17-89.147-237.78v-159.23h-86.522v495.83h107.18c23.984 0 46.458-11.768 60.12-31.48 13.662-19.713 16.792-44.889 8.373-67.346z" fill="#DCDEE2"/><path d="m351.63 291.37h-191.4l-49.8 133.19c-4.754 12.713-3.043 26.401 4.694 37.554s19.958 17.549 33.532 17.549h214.69c13.58 0 25.806-6.401 33.542-17.564 7.737-11.162 9.439-24.858 4.671-37.574l-49.922-133.16z" fill="#9ED04D"/><path d="m401.56 424.53-49.923-133.16h-95.467v188.3h107.18c13.58 0 25.806-6.401 33.542-17.564 7.737-11.162 9.439-24.857 4.672-37.573z" fill="#86B143"/><rect x="169.65" y="15.823" width="173.04" height="44.833" fill="#D8D9DD"/><rect x="256.17" y="25.322" width="86.52" height="35.34" fill="#B7B9C0"/><rect x="142.46" width="226.83" height="33.391" fill="#EDEEF0"/><rect x="256.17" width="113.13" height="33.391" fill="#DCDEE2"/><g fill="#fff"><circle cx="223.69" cy="355.71" r="26.489"/><circle cx="176.68" cy="434.35" r="18.731"/><circle cx="331.33" cy="404.25" r="18.731"/></g><circle cx="331.33" cy="404.25" r="18.731" fill="#EDEEF0"/><g fill="#444242"><rect x="169.65" y="60.47" width="74.72" height="33.391"/><rect x="169.65" y="119.84" width="74.72" height="33.391"/></g></svg>