<?xml version="1.0" encoding="UTF-8"?>
<svg version="1.1" viewBox="0 0 103.8 69.2" xmlns="http://www.w3.org/2000/svg" xmlns:xlink="http://www.w3.org/1999/xlink">
<defs>
<linearGradient id="e" x1="-3677.2" x2="-3679.2" y1="-3743.8" y2="-3799.8" gradientTransform="matrix(.66816 0 0 .66816 2780.2 3082.8)" gradientUnits="userSpaceOnUse" xlink:href="#a"/>
<linearGradient id="a">
<stop stop-color="#f4e63e" offset="0"/>
<stop stop-color="#eadd0d" offset=".29"/>
<stop stop-color="#f5faad" offset=".524"/>
<stop stop-color="#ddf553" offset=".919"/>
<stop stop-color="#f2b815" offset="1"/>
</linearGradient>
<linearGradient id="d" x1="-3662.9" x2="-3662.8" y1="-3120.8" y2="-3175.3" gradientTransform="matrix(.66816 0 0 .66816 2882.4 2622.1)" gradientUnits="userSpaceOnUse" xlink:href="#a"/>
<linearGradient id="c" x1="-3757.1" x2="-3758" y1="-2985.7" y2="-3033.3" gradientTransform="matrix(.66816 0 0 .66816 2990.1 2498.6)" gradientUnits="userSpaceOnUse" xlink:href="#a"/>
<linearGradient id="b" x1="-4000.7" x2="-3999.4" y1="-2582.8" y2="-2631.9" gradientTransform="matrix(.66816 0 0 .66816 3193.6 2233)" gradientUnits="userSpaceOnUse" xlink:href="#a"/>
<linearGradient id="j" x1="-2598.2" x2="-2604.4" y1="-3960.6" y2="-4005" gradientTransform="matrix(.66816 0 0 .66816 2123.2 3259.4)" gradientUnits="userSpaceOnUse" xlink:href="#a"/>
<linearGradient id="i" x1="-2595.9" x2="-2598.9" y1="-3911.6" y2="-3953.3" gradientTransform="matrix(.66816 0 0 .66816 2123.2 3259.4)" gradientUnits="userSpaceOnUse" xlink:href="#a"/>
<linearGradient id="h" x1="-3895.2" x2="-3892.8" y1="-2715" y2="-2763.7" gradientTransform="matrix(.66816 0 0 .66816 3106.3 2352.6)" gradientUnits="userSpaceOnUse" xlink:href="#a"/>
<linearGradient id="g" x1="-3458" x2="-3455.7" y1="-3191.2" y2="-3242.2" gradientTransform="matrix(.66816 0 0 .66816 2771.1 2739.5)" gradientUnits="userSpaceOnUse" xlink:href="#a"/>
<linearGradient id="f" x1="-3390.2" x2="-3388.6" y1="-3215.4" y2="-3266.2" gradientTransform="matrix(.66816 0 0 .66816 2755 2755.6)" gradientUnits="userSpaceOnUse" xlink:href="#a"/>
</defs>
<g transform="translate(-392.09 -444.79)">
<rect transform="matrix(.98914 -.14698 .18425 .98288 0 0)" x="309.2" y="507.9" width="49" height="49" fill="#204a87" stroke-width="2.68"/>
<rect transform="matrix(.13193 -.99126 .99485 .10138 0 0)" x="-464.8" y="489" width="66.1" height="37.1" fill="#00aeef" stroke-width="2.68"/>
<path d="m395.3 482.2-3.2-24.4 27.8-3.2 2.6 13.9 3.5-10.2 8.6-0.1 0.6-5.9 23.4 0.9v4.6l16 1-2.4 24.1-23.1-1.4 0.4-5.2-6.2-0.5 2.2 6.6-26.5-0.4-0.2-2.8z" fill="#1586ce"/>
<path d="m432.5 506.4 2.7-23.9 18.7 1.9-0.3 2.3 16.6-0.7v-1.7l25.2-0.5 0.5 23.5-23.1 1s-3.9 2.1-9.5 2.3c-13.8 0.4-12.4-10.8-12.4-10.8l-6.7-0.3-1.1 7.7z" fill="#2b5dac"/>
<path d="m472.2 450.1 8.8-2.1 5.2 17.5h3.3l4.9 12.5s-0.9 5.6-5.9 6.1c-3 0.9-9.9-0.1-9.9-0.1l-3.9-12.4c0-3.1 1.6-4.4 1.9-4.1z" fill="#1586ce"/>
<g transform="matrix(.59509 -.070463 .079143 .52983 169.99 192.84)" fill="url(#e)" stroke-width="1px">
<path d="m306.7 546h10.4l7.2 18.8 7.2-18.8h10.3v35.1h-7.7v-25.7l-7.3 18.9h-5.2l-7.3-18.9v25.7h-7.7v-35.1z" fill="url(#e)"/>
</g>
<g transform="matrix(.60033 0 0 .53449 169.99 192.84)" fill="url(#d)" stroke-width="1px">
<path d="m441 530.3h-12.7l-2 6.4h-8.2l11.7-35.1h9.7l11.7 35.1h-8.2l-2-6.4zm-10.7-6.5h8.6l-4.3-14-4.3 14z" fill="url(#d)"/>
</g>
<g transform="matrix(.5998 .022477 -.025246 .53402 169.99 192.84)" fill="url(#c)" stroke-width="1px">
<path d="m465.6 470.2h29.1v6.8h-10.5v28.2h-8.2v-28.2h-10.5v-6.8z" fill="url(#c)"/>
</g>
<g transform="matrix(.59846 .027076 -.041778 .53428 169.99 192.84)" fill="url(#b)" stroke-width="1px">
<path d="m508 474.5h8.2v13.4h12v-13.4h8.1v35.1h-8.1v-14.9h-12v14.9h-8.2v-35.1z" fill="url(#b)"/>
</g>
<g transform="matrix(.58396 -.12018 .13902 .52087 169.99 192.84)" fill="url(#j)" stroke-width="1px">
<path d="m383.5 592.7h5.9v20.5h-5.9v-20.5zm0-8h5.9v5.3h-5.9v-5.3z" fill="url(#j)"/>
</g>
<g transform="matrix(.58396 -.12018 .13902 .52087 169.99 192.84)" fill="url(#i)" stroke-width="1px">
<path d="m395.8 618.8v5.8q-2-1-3.9-1.5t-3.6-0.5q-2.3 0-3.4 0.7t-1.1 2.2q0 1.1 0.7 1.7t2.7 1l2.7 0.6q4.1 0.9 5.8 2.8t1.7 5.3q0 4.5-2.4 6.7t-7.3 2.2q-2.3 0-4.7-0.5-2.3-0.5-4.7-1.5v-5.9q2.4 1.4 4.5 2.1 2.2 0.7 4.2 0.7 2.1 0 3.2-0.8t1.1-2.2q0-1.3-0.7-2t-3-1.2l-2.4-0.6q-3.7-0.9-5.4-2.8t-1.7-5.2q0-4.1 2.4-6.3t6.8-2.2q2 0 4.2 0.3 2.1 0.3 4.4 1z" fill="url(#i)"/>
</g>
<g transform="matrix(.59791 .048015 -.05393 .53233 169.99 192.84)" fill="url(#h)" stroke-width="1px">
<path d="m492.5 505h22v6.8h-13.8v6.5h13v6.8h-13v14.9h-8.2v-35.1z" fill="url(#h)"/>
</g>
<g transform="matrix(.59981 -.022188 .024922 .53403 169.99 192.84)" fill="url(#g)" stroke-width="1px">
<path d="m448.2 572.8h8.2v21q0 4.3 1.3 6.2t4.2 1.9 4.2-1.9 1.3-6.2v-21h8.2v21q0 7.4-3.4 11.1-3.4 3.6-10.2 3.6-6.9 0-10.2-3.6-3.4-3.6-3.4-11.1v-21z" fill="url(#g)"/>
</g>
<g transform="matrix(.59966 -.025309 .028426 .53389 169.99 192.84)" fill="url(#f)" stroke-width="1px">
<path d="m479.2 573.5h9.1l11.5 24.1v-24.1h7.7v35.1h-9.1l-11.5-24.1v24.1h-7.7v-35.1z" fill="url(#f)"/>
</g>
</g>
</svg>
